<svg width="32" height="32" viewBox="0 0 32 32" fill="none" xmlns="http://www.w3.org/2000/svg">
<path d="M15.7332 2.3999C8.37324 2.3999 2.3999 8.37324 2.3999 15.7332C2.3999 23.0932 8.37324 29.0666 15.7332 29.0666C23.0932 29.0666 29.0666 23.0932 29.0666 15.7332C29.0666 8.37324 23.0932 2.3999 15.7332 2.3999ZM15.7332 6.3999C17.9466 6.3999 19.7332 8.18657 19.7332 10.3999C19.7332 12.6132 17.9466 14.3999 15.7332 14.3999C13.5199 14.3999 11.7332 12.6132 11.7332 10.3999C11.7332 8.18657 13.5199 6.3999 15.7332 6.3999ZM15.7332 25.3332C12.3999 25.3332 9.45324 23.6266 7.73324 21.0399C7.77324 18.3866 13.0666 16.9332 15.7332 16.9332C18.3866 16.9332 23.6932 18.3866 23.7332 21.0399C22.0132 23.6266 19.0666 25.3332 15.7332 25.3332Z" fill="#1B749F"/>
</svg>
