<svg width="27" height="34" viewBox="0 0 27 34" fill="none" xmlns="http://www.w3.org/2000/svg">
<path fill-rule="evenodd" clip-rule="evenodd" d="M0.09375 9.83101C2.77493 11.3127 5.17389 12.1594 6.86727 12.6533C10.0188 13.5706 12.1591 14.1585 14.6756 13.4059C16.2749 12.9355 17.3098 12.1124 18.5563 11.1481C20.5084 9.61934 21.6138 8.13763 23.2601 5.87979C24.3185 4.4216 25.6356 2.46951 26.9762 0C26.2706 1.7169 24.1539 6.65592 21.6843 10.8188C21.6843 10.8188 20.673 12.5357 18.7915 14.5348C17.3098 16.0871 16.4631 16.581 15.5694 16.7927C14.7227 16.9808 13.9936 16.8868 13.1469 16.6986C9.99532 16.0166 7.61988 14.723 7.26709 14.5348C5.36204 13.453 2.86901 11.9477 0.09375 9.83101Z" fill="#0084AE"/>
<path fill-rule="evenodd" clip-rule="evenodd" d="M0 24.1775C2.58711 22.39 4.86847 20.9789 6.65592 19.897C8.63153 18.721 9.90157 18.039 11.642 17.6156C13.2178 17.2393 14.3702 16.9336 15.7578 17.2864C17.9451 17.8273 19.1916 19.6148 21.3554 22.6958C21.7082 23.2132 22.4843 24.3421 23.5897 26.3412C24.554 28.0817 25.777 30.5277 27 33.6322C24.8362 30.0573 22.696 27.3761 21.0732 25.5181C17.3571 21.3081 15.7108 20.6966 14.8171 20.4615C12.8179 19.9205 11.1716 20.3203 7.99652 21.12C5.92683 21.6374 3.15157 22.5311 0 24.1775Z" fill="black"/>
<path fill-rule="evenodd" clip-rule="evenodd" d="M13.5467 10.5367C15.3782 10.5367 16.8629 9.05199 16.8629 7.2205C16.8629 5.38901 15.3782 3.9043 13.5467 3.9043C11.7152 3.9043 10.2305 5.38901 10.2305 7.2205C10.2305 9.05199 11.7152 10.5367 13.5467 10.5367Z" fill="black"/>
</svg>
