<svg width="44" height="46" viewBox="0 0 44 46" fill="none" xmlns="http://www.w3.org/2000/svg">
<g filter="url(#filter0_dd)">
<path fill-rule="evenodd" clip-rule="evenodd" d="M2 2V42H42V2H2Z" fill="#1B749F"/>
<path d="M41.75 41.75H2.25V2.25H41.75V41.75Z" stroke="url(#paint0_linear)" stroke-width="0.5"/>
<path d="M41.75 41.75H2.25V2.25H41.75V41.75Z" stroke="url(#paint1_linear)" stroke-width="0.5"/>
</g>
<g clip-path="url(#clip0)">
<path d="M2.70127 2.70194H41.2977V41.2984H2.70127V2.70194Z" stroke="#22759D" stroke-width="1.40351"/>
<path d="M30.4205 11.4739H13.5784C12.4205 11.4739 11.4837 12.4212 11.4837 13.5791L11.4731 32.5265L15.6837 28.316H30.4205C31.5784 28.316 32.5258 27.3686 32.5258 26.2107V13.5791C32.5258 12.4212 31.5784 11.4739 30.4205 11.4739ZM17.7889 24.1055H15.6837V22.0002H17.7889V24.1055ZM17.7889 20.9476H15.6837V18.8423H17.7889V20.9476ZM19.8942 17.7897H15.6837V15.6844H19.8942V17.7897ZM25.1574 24.1055H17.7889V22.0002H25.1574V24.1055ZM28.3152 20.9476H17.7889V18.8423H28.3152V20.9476ZM28.3152 17.7897H19.8942V15.6844H28.3152V17.7897Z" fill="white"/>
</g>
<defs>
<filter id="filter0_dd" x="0" y="0" width="44" height="46" filterUnits="userSpaceOnUse" color-interpolation-filters="sRGB">
<feFlood flood-opacity="0" result="BackgroundImageFix"/>
<feColorMatrix in="SourceAlpha" type="matrix" values="0 0 0 0 0 0 0 0 0 0 0 0 0 0 0 0 0 0 127 0"/>
<feOffset dy="2"/>
<feGaussianBlur stdDeviation="1"/>
<feColorMatrix type="matrix" values="0 0 0 0 0 0 0 0 0 0 0 0 0 0 0 0 0 0 0.24 0"/>
<feBlend mode="normal" in2="BackgroundImageFix" result="effect1_dropShadow"/>
<feColorMatrix in="SourceAlpha" type="matrix" values="0 0 0 0 0 0 0 0 0 0 0 0 0 0 0 0 0 0 127 0"/>
<feOffset/>
<feGaussianBlur stdDeviation="1"/>
<feColorMatrix type="matrix" values="0 0 0 0 0 0 0 0 0 0 0 0 0 0 0 0 0 0 0.12 0"/>
<feBlend mode="normal" in2="effect1_dropShadow" result="effect2_dropShadow"/>
<feBlend mode="normal" in="SourceGraphic" in2="effect2_dropShadow" result="shape"/>
</filter>
<linearGradient id="paint0_linear" x1="2" y1="2" x2="2" y2="42" gradientUnits="userSpaceOnUse">
<stop stop-color="white" stop-opacity="0.8"/>
<stop offset="0.05" stop-color="white" stop-opacity="0.4"/>
<stop offset="0.2" stop-color="white" stop-opacity="0"/>
<stop offset="1" stop-color="white" stop-opacity="0"/>
</linearGradient>
<linearGradient id="paint1_linear" x1="2" y1="2" x2="2" y2="42" gradientUnits="userSpaceOnUse">
<stop stop-opacity="0"/>
<stop offset="0.8" stop-opacity="0"/>
<stop offset="0.950255" stop-opacity="0.02"/>
<stop offset="1" stop-opacity="0.04"/>
</linearGradient>
<clipPath id="clip0">
<rect width="25.2632" height="25.2632" fill="white" transform="translate(9.36816 9.36859)"/>
</clipPath>
</defs>
</svg>
