<svg width="18" height="19" viewBox="0 0 18 19" fill="none" xmlns="http://www.w3.org/2000/svg">
<path fill-rule="evenodd" clip-rule="evenodd" d="M12.502 11.9089H11.708L11.432 11.6349C12.407 10.4979 13 9.0239 13 7.4089C13 3.8189 10.09 0.908905 6.5 0.908905C2.91 0.908905 0 3.8189 0 7.4089C0 10.9989 2.91 13.9089 6.5 13.9089C8.115 13.9089 9.588 13.3169 10.725 12.3429L11.001 12.6169V13.4089L15.999 18.3999L17.49 16.9089L12.502 11.9089ZM6.5 11.9089C4.014 11.9089 2 9.89487 2 7.40887C2 4.92387 4.014 2.90887 6.5 2.90887C8.985 2.90887 11 4.92387 11 7.40887C11 9.89487 8.985 11.9089 6.5 11.9089Z" fill="white"/>
</svg>
