<svg width="32" height="32" viewBox="0 0 32 32" fill="none" xmlns="http://www.w3.org/2000/svg">
<path d="M10.3999 23.7332C8.93324 23.7332 7.74657 24.9332 7.74657 26.3999C7.74657 27.8666 8.93324 29.0666 10.3999 29.0666C11.8666 29.0666 13.0666 27.8666 13.0666 26.3999C13.0666 24.9332 11.8666 23.7332 10.3999 23.7332ZM2.3999 2.3999V5.06657H5.06657L9.86657 15.1866L8.06657 18.4532C7.85324 18.8266 7.73324 19.2666 7.73324 19.7332C7.73324 21.1999 8.93324 22.3999 10.3999 22.3999H26.3999V19.7332H10.9599C10.7732 19.7332 10.6266 19.5866 10.6266 19.3999L10.6666 19.2399L11.8666 17.0666H21.7999C22.7999 17.0666 23.6799 16.5199 24.1332 15.6932L28.9066 7.0399C29.0132 6.85324 29.0666 6.62657 29.0666 6.3999C29.0666 5.66657 28.4666 5.06657 27.7332 5.06657H8.01324L6.7599 2.3999H2.3999ZM23.7332 23.7332C22.2666 23.7332 21.0799 24.9332 21.0799 26.3999C21.0799 27.8666 22.2666 29.0666 23.7332 29.0666C25.1999 29.0666 26.3999 27.8666 26.3999 26.3999C26.3999 24.9332 25.1999 23.7332 23.7332 23.7332Z" fill="#1B749F"/>
</svg>
