<svg width="40" height="40" viewBox="0 0 40 40" fill="none" xmlns="http://www.w3.org/2000/svg">
<rect width="40" height="40" fill="#1B749F"/>
<path d="M16.3332 29.1668C15.6852 29.1668 15.7953 28.9222 15.5719 28.3052L13.6665 22.0345L28.3332 13.3335" fill="#C8DAEA"/>
<path d="M16.3335 29.1667C16.8335 29.1667 17.0544 28.938 17.3335 28.6667L20.0002 26.0737L16.6738 24.0679" fill="#A9C9DD"/>
<path d="M16.6733 24.0686L24.7333 30.0234C25.653 30.5309 26.3168 30.2681 26.5459 29.1695L29.8268 13.709C30.1627 12.3623 29.3134 11.7515 28.4335 12.1509L9.16855 19.5794C7.85353 20.1069 7.8612 20.8405 8.92885 21.1674L13.8727 22.7105L25.3182 15.4897C25.8585 15.162 26.3544 15.3382 25.9474 15.6994" fill="url(#paint0_linear)"/>
<defs>
<linearGradient id="paint0_linear" x1="17.4963" y1="21.2288" x2="19.6332" y2="28.1412" gradientUnits="userSpaceOnUse">
<stop stop-color="#EFF7FC"/>
<stop offset="1" stop-color="white"/>
</linearGradient>
</defs>
</svg>
