<svg width="40" height="40" viewBox="0 0 40 40" fill="none" xmlns="http://www.w3.org/2000/svg">
<rect width="40" height="40" fill="#1B749F"/>
<path d="M25.3283 17.4654C25.231 16.6751 24.9881 16.0546 24.5567 15.505C23.9966 14.7973 23.2808 14.3735 22.2211 14.1221C21.5305 13.9545 21.2514 13.9737 21.0017 14.2019C20.769 14.4157 20.7236 14.8442 20.9014 15.1217C21.0264 15.3231 21.1707 15.3953 21.5719 15.474C22.1061 15.5723 22.4753 15.6999 22.8112 15.8919C23.524 16.3035 23.856 16.9477 23.8916 17.9904C23.9082 18.4801 23.9505 18.6306 24.1215 18.8042C24.4384 19.1217 25.0025 19.0599 25.2418 18.6801C25.3296 18.5369 25.343 18.4746 25.3523 18.1421C25.3584 17.9363 25.3495 17.6299 25.3283 17.4654Z" fill="white"/>
<path d="M28.1207 18.3568C27.9799 15.9356 27.0329 13.9877 25.3381 12.6172C24.3832 11.8471 23.2289 11.3176 21.9637 11.06C21.5002 10.9679 20.6469 10.8933 20.5005 10.936C20.3624 10.9755 20.167 11.1251 20.0799 11.2604C19.9878 11.4071 19.9671 11.7346 20.0456 11.924C20.1724 12.2407 20.4083 12.3526 21.0689 12.4104C22.0874 12.4995 23.1378 12.8573 23.9315 13.387C24.8376 13.9901 25.5579 14.815 26.0238 15.7843C26.4264 16.6172 26.6741 17.8175 26.6672 18.8923C26.6649 19.281 26.7249 19.5005 26.8813 19.661C27.1172 19.9078 27.4612 19.9618 27.7648 19.7979C28.1012 19.621 28.1799 19.3104 28.1207 18.3568Z" fill="white"/>
<path d="M31.2104 27.6805C31.1631 27.5421 31.0526 27.3286 30.9736 27.2061C30.4762 26.455 27.804 24.3637 26.4698 23.6798C25.708 23.2885 25.1435 23.158 24.7251 23.2805C24.2751 23.4071 24.0383 23.6165 23.2844 24.5535C22.9805 24.929 22.6686 25.2809 22.5857 25.3362C22.3805 25.4785 21.9778 25.5932 21.6936 25.5932C21.0345 25.5892 19.8384 25.1623 18.9187 24.6009C18.2043 24.1661 17.2886 23.3873 16.5859 22.6164C15.757 21.7111 15.1926 20.9126 14.7465 20.0112C14.1702 18.853 14.0242 18.1453 14.2649 17.6274C14.3241 17.497 14.4031 17.3586 14.4386 17.3151C14.4741 17.2756 14.8452 16.9712 15.2557 16.6391C16.0609 15.9987 16.1912 15.8525 16.3412 15.4136C16.5306 14.8562 16.4794 14.287 16.1873 13.7138C15.9622 13.2789 15.3741 12.3301 14.9478 11.7174C14.3834 10.911 12.9781 9.18736 12.6978 8.95405C12.1926 8.54296 11.5453 8.47176 10.8308 8.74854C10.0769 9.04108 8.66379 10.1796 8.05985 10.9742C7.51513 11.6937 7.30599 12.2036 7.27438 12.8757C7.24677 13.4291 7.29412 13.6584 7.58622 14.366C9.87168 19.9163 13.282 24.3479 17.9675 27.8663C20.4147 29.7045 22.9528 31.104 25.5856 32.0607C27.1211 32.618 27.7882 32.6457 28.5737 32.1872C28.9052 31.9895 29.7263 31.1474 30.1841 30.5347C30.942 29.5147 31.2223 29.0443 31.3012 28.6688C31.3565 28.4118 31.3131 27.9651 31.2104 27.6805Z" fill="white"/>
<path d="M30.9627 18.9126C30.9122 17.543 30.6816 16.4197 30.2008 15.1672C29.7261 13.9352 29.2457 13.1313 28.3383 12.044C27.4805 11.0244 26.8143 10.4423 25.7576 9.79433C24.2833 8.8915 22.4892 8.29404 20.4785 8.04278C19.7928 7.95496 19.6377 7.96123 19.4273 8.1016C19.0196 8.3675 19.0251 9.03073 19.434 9.29265C19.5694 9.37597 19.6895 9.40632 20.238 9.47811C21.08 9.59147 21.6214 9.6983 22.2638 9.87358C24.783 10.5622 26.7203 11.9699 28.0154 14.0594C29.0993 15.8011 29.5492 17.5429 29.4853 19.7674C29.4631 20.5195 29.4792 20.6518 29.5942 20.8325C29.8143 21.1693 30.3949 21.2359 30.6928 20.9564C30.8781 20.7861 30.913 20.6583 30.9495 20.0146C30.967 19.6788 30.9708 19.1831 30.9627 18.9126Z" fill="white"/>
</svg>
