<svg width="40" height="40" viewBox="0 0 40 40" fill="none" xmlns="http://www.w3.org/2000/svg">
<rect width="40" height="40" fill="#1B749F"/>
<path d="M20 40C31.0457 40 40 31.0457 40 20C40 8.9543 31.0457 0 20 0C8.9543 0 0 8.9543 0 20C0 31.0457 8.9543 40 20 40Z" fill="#1B749F"/>
<path fill-rule="evenodd" clip-rule="evenodd" d="M20.6591 31.1273H20.6541C18.6638 31.1266 16.708 30.6272 14.971 29.6797L8.6665 31.3335L10.3537 25.1709C9.31295 23.3673 8.76532 21.3214 8.76621 19.2254C8.76882 12.6682 14.1039 7.3335 20.659 7.3335C23.8404 7.33487 26.8264 8.57338 29.0717 10.8213C31.317 13.0692 32.5529 16.0571 32.5516 19.2347C32.549 25.7904 27.2161 31.1246 20.6591 31.1273ZM15.2628 27.5263L15.6238 27.7406C17.1414 28.6412 18.8811 29.1177 20.6548 29.1184H20.6588C26.107 29.1184 30.5412 24.684 30.5434 19.2337C30.5444 16.5924 29.5172 14.109 27.651 12.2406C25.7848 10.3722 23.3029 9.34271 20.6627 9.3418C15.2104 9.3418 10.7761 13.7757 10.7739 19.2257C10.7732 21.0934 11.2958 22.9124 12.2852 24.4861L12.5203 24.8601L11.5217 28.5077L15.2628 27.5263ZM26.2429 21.7953C26.4501 21.8955 26.5901 21.9631 26.6499 22.0629C26.7241 22.1868 26.7241 22.7817 26.4766 23.476C26.2289 24.1701 25.0418 24.8036 24.4708 24.8889C23.9589 24.9654 23.311 24.9973 22.5992 24.7711C22.1676 24.6342 21.6141 24.4514 20.9051 24.1452C18.1194 22.9423 16.2367 20.2423 15.8809 19.732C15.856 19.6962 15.8386 19.6712 15.8288 19.6582L15.8264 19.655C15.6692 19.4452 14.6155 18.0393 14.6155 16.5842C14.6155 15.2155 15.2878 14.498 15.5973 14.1678C15.6185 14.1452 15.638 14.1243 15.6555 14.1053C15.9279 13.8078 16.2498 13.7334 16.4479 13.7334C16.646 13.7334 16.8443 13.7352 17.0174 13.7439C17.0388 13.745 17.061 13.7449 17.084 13.7447C17.2572 13.7437 17.4731 13.7425 17.686 14.254C17.768 14.4509 17.8879 14.7428 18.0143 15.0507C18.27 15.6732 18.5525 16.3609 18.6022 16.4604C18.6765 16.6092 18.726 16.7827 18.627 16.9811C18.6121 17.0108 18.5984 17.0389 18.5852 17.0657C18.5108 17.2176 18.4561 17.3293 18.3298 17.4767C18.2802 17.5347 18.2289 17.5972 18.1776 17.6597C18.0753 17.7842 17.9731 17.9087 17.8841 17.9974C17.7353 18.1455 17.5805 18.3063 17.7538 18.6038C17.9272 18.9013 18.5235 19.8744 19.4069 20.6623C20.3565 21.5094 21.1819 21.8673 21.6002 22.0488C21.6819 22.0842 21.7481 22.1129 21.7966 22.1372C22.0937 22.286 22.267 22.2611 22.4404 22.0629C22.6137 21.8646 23.1832 21.1952 23.3813 20.8977C23.5793 20.6003 23.7775 20.6499 24.0498 20.749C24.3223 20.8482 25.7832 21.567 26.0804 21.7158C26.1384 21.7448 26.1926 21.771 26.2429 21.7953Z" fill="#FDFDFD"/>
</svg>
