<svg width="40" height="26" viewBox="0 0 40 26" fill="none" xmlns="http://www.w3.org/2000/svg">
<g opacity="0.01">
<rect width="39.8152" height="25.9701" fill="white"/>
</g>
<rect x="14.6577" y="4.5249" width="10.503" height="16.9179" fill="#FF5F00"/>
<path fill-rule="evenodd" clip-rule="evenodd" d="M15.7391 12.9853C15.7365 9.68452 17.2729 6.56583 19.9058 4.52785C15.433 1.0612 9.00987 1.56615 5.15044 5.68783C1.291 9.80951 1.291 16.1641 5.15044 20.2858C9.00987 24.4075 15.433 24.9124 19.9058 21.4458C17.2721 19.4072 15.7355 16.2872 15.7391 12.9853Z" fill="#EB001B"/>
<path fill-rule="evenodd" clip-rule="evenodd" d="M36.5362 19.3798V20.0829H36.4628V19.3798H36.3062V19.2344H36.7028V19.3798H36.5362ZM37.3061 19.2344V20.0829H37.2228V19.4404L37.0928 19.992H37.0028L36.8728 19.4404V20.0829H36.7861V19.2344H36.9061L37.0461 19.8404L37.1861 19.2344H37.3061Z" fill="#F79E1B"/>
<path fill-rule="evenodd" clip-rule="evenodd" d="M37.5578 12.7614C37.5577 16.8806 35.1727 20.6381 31.4159 22.4382C27.659 24.2382 23.1898 23.7648 19.9062 21.2189C22.5379 19.1792 24.0745 16.0609 24.0745 12.76C24.0745 9.45897 22.5379 6.34069 19.9062 4.30099C23.1898 1.75511 27.659 1.28166 31.4159 3.08171C35.1727 4.88176 37.5577 8.63929 37.5578 12.7585V12.7614Z" fill="#F79E1B"/>
</svg>
