<svg width="50" height="14" viewBox="0 0 50 14" fill="none" xmlns="http://www.w3.org/2000/svg">
<path fill-rule="evenodd" clip-rule="evenodd" d="M13.4734 2.66362e-07V0.0061138C13.4672 0.0061138 11.5204 2.33213e-07 11.0012 1.84017C10.5253 3.52751 9.18418 8.18603 9.1471 8.31441H8.77627C8.77627 8.31441 7.4042 3.55197 6.92213 1.83406C6.40297 -0.00611333 4.44994 2.66362e-07 4.44994 2.66362e-07H0V14H4.44994V5.68559H4.63535H4.82077L7.41656 14H10.5068L13.1026 5.6917H13.4734V14H17.9234V2.66362e-07H13.4734Z" fill="#4DB45E"/>
<path fill-rule="evenodd" clip-rule="evenodd" d="M29.7281 0C29.7281 0 28.424 0.116157 27.8122 1.46725L24.6601 8.31441H24.2893V0H19.8394V14H24.0421C24.0421 14 25.408 13.8777 26.0198 12.5328L29.1101 5.68559H29.4809V14H33.9308V0H29.7281Z" fill="#4DB45E"/>
<path fill-rule="evenodd" clip-rule="evenodd" d="M35.9087 6.35803V14H40.3586V9.53707H45.1794C47.2808 9.53707 49.0607 8.21043 49.722 6.35803H35.9087Z" fill="#4DB45E"/>
<path fill-rule="evenodd" clip-rule="evenodd" d="M45.1791 0H35.2842C35.7786 2.6655 37.7996 4.80524 40.414 5.50218C41.0073 5.66113 41.6315 5.74672 42.2743 5.74672H49.901C49.969 5.42882 49.9999 5.1048 49.9999 4.76856C49.9999 2.13362 47.8429 0 45.1791 0Z" fill="url(#paint0_linear)"/>
<defs>
<linearGradient id="paint0_linear" x1="35.2854" y1="2.87336" x2="49.9999" y2="2.87336" gradientUnits="userSpaceOnUse">
<stop offset="0.3" stop-color="#00B4E6"/>
<stop offset="1" stop-color="#088CCB"/>
</linearGradient>
</defs>
</svg>
