<svg width="44" height="14" viewBox="0 0 44 14" fill="none" xmlns="http://www.w3.org/2000/svg">
<path fill-rule="evenodd" clip-rule="evenodd" d="M18.9352 13.744H15.3955L17.6095 0.411865H21.149L18.9352 13.744Z" fill="#0742A6"/>
<path fill-rule="evenodd" clip-rule="evenodd" d="M31.7666 0.737767C31.0684 0.46801 29.961 0.170166 28.5917 0.170166C25.0962 0.170166 22.6346 1.98551 22.6195 4.5809C22.5905 6.49578 24.3819 7.55934 25.7218 8.19782C27.0912 8.85025 27.5567 9.2761 27.5567 9.85765C27.5428 10.7508 26.4501 11.1625 25.431 11.1625C24.0178 11.1625 23.2606 10.9502 22.1099 10.4533L21.6438 10.2403L21.1484 13.2331C21.9786 13.6014 23.5082 13.9283 25.0962 13.9426C28.8103 13.9426 31.2283 12.1554 31.2569 9.38958C31.271 7.87189 30.3251 6.70898 28.2857 5.75871C27.0477 5.14869 26.2895 4.73736 26.2895 4.11321C26.304 3.5458 26.9308 2.96462 28.3283 2.96462C29.479 2.93616 30.3245 3.20554 30.965 3.47511L31.2852 3.61668L31.7666 0.737767Z" fill="#0742A6"/>
<path fill-rule="evenodd" clip-rule="evenodd" d="M38.1025 0.411865H40.8404L43.6961 13.7438H40.4187C40.4187 13.7438 40.0979 12.212 39.9963 11.7439H35.4516C35.3202 12.0983 34.7087 13.7438 34.7087 13.7438H30.9946L36.2524 1.51804C36.6167 0.65278 37.2581 0.411865 38.1025 0.411865ZM37.8843 5.29056C37.8843 5.29056 36.7626 8.25486 36.4711 9.02077H39.4132C39.2677 8.3542 38.5974 5.16293 38.5974 5.16293L38.35 4.01416C38.2458 4.30998 38.0952 4.71668 37.9936 4.99099C37.9247 5.17694 37.8783 5.30206 37.8843 5.29056Z" fill="#0742A6"/>
<path fill-rule="evenodd" clip-rule="evenodd" d="M12.4389 0.411865L8.97237 9.50309L8.59357 7.65929C7.95268 5.53177 5.94272 3.22027 3.69971 2.07093L6.87492 13.7298H10.6181L16.1818 0.411865H12.4389V0.411865Z" fill="#0742A6"/>
<path fill-rule="evenodd" clip-rule="evenodd" d="M5.75329 0.411865H0.0582626L0 0.681245C4.44247 1.7876 7.38464 4.45444 8.59344 7.65985L7.35541 1.53255C7.15159 0.681056 6.52522 0.439953 5.75329 0.411865Z" fill="#0742A6"/>
</svg>
